<svg width="30" height="30" viewBox="0 0 30 30" fill="none" xmlns="http://www.w3.org/2000/svg">
<path d="M19.9501 4.19995H10.0501C6.90007 4.19995 4.20007 6.74995 4.20007 10.05V19.95C4.20007 23.1 6.75007 25.8 10.0501 25.8H19.9501C23.1001 25.8 25.8001 23.25 25.8001 19.95V10.05C25.8001 6.74995 23.2501 4.19995 19.9501 4.19995ZM18.9001 17.85C18.1501 18.9 16.9501 19.5 15.7501 19.8C15.4501 19.8 15.3001 19.8 15.0001 19.8C13.9501 19.8 12.9001 19.5 12.1501 18.9C11.1001 18.15 10.5001 16.95 10.2001 15.75C10.0501 14.4 10.3501 13.05 11.1001 12C11.8501 10.95 13.0501 10.35 14.2501 10.05C14.7001 10.05 15.1501 10.05 15.6001 10.05C16.6501 10.2 17.5501 10.65 18.3001 11.4C19.0501 12.15 19.5001 13.05 19.6501 14.1C19.9501 15.6 19.6501 16.8 18.9001 17.85ZM21.1501 10.2C21.0001 10.35 20.7001 10.5 20.5501 10.5C20.2501 10.5 20.1001 10.35 19.9501 10.2C19.8001 10.05 19.6501 9.74995 19.6501 9.59995C19.6501 9.29995 19.8001 9.14995 19.9501 8.99995C20.1001 8.84995 20.4001 8.69995 20.5501 8.69995C20.8501 8.69995 21.0001 8.84995 21.1501 8.99995C21.3001 9.14995 21.4501 9.44995 21.4501 9.59995C21.4501 9.74995 21.3001 10.05 21.1501 10.2Z" fill="white"/>
</svg>
