<svg width="50" height="50" viewBox="0 0 50 50" fill="none" xmlns="http://www.w3.org/2000/svg">
<circle cx="25" cy="25" r="23.75" transform="rotate(-180 25 25)" stroke="white" stroke-width="0.5"/>
<g clip-path="url(#clip0)">
<path d="M28.1072 30.6143C27.8957 30.8258 27.5628 30.8258 27.3513 30.6143C27.147 30.41 27.147 30.0699 27.3513 29.8661L31.1839 26.0334L18.5368 26.0334C18.242 26.0334 18 25.7991 18 25.5043C18 25.2095 18.242 24.9675 18.5368 24.9675L31.1839 24.9675L27.3513 21.142C27.147 20.9306 27.147 20.59 27.3513 20.3862C27.5628 20.1747 27.8957 20.1747 28.1072 20.3862L32.8471 25.1261C33.0514 25.3305 33.0514 25.6705 32.8471 25.8744L28.1072 30.6143Z" fill="white"/>
</g>
<defs>
<clipPath id="clip0">
<rect width="15" height="15" fill="white" transform="translate(33 33) rotate(-180)"/>
</clipPath>
</defs>
</svg>
