<svg width="50" height="50" viewBox="0 0 50 50" fill="none" xmlns="http://www.w3.org/2000/svg">
<circle cx="25" cy="25" r="23.75" stroke="#D58C51"/>
<g clip-path="url(#clip0)">
<path d="M27.1072 29.6143C26.8957 29.8258 26.5628 29.8258 26.3513 29.6143C26.147 29.41 26.147 29.0699 26.3513 28.8661L30.1839 25.0334L17.5368 25.0334C17.242 25.0334 17 24.7991 17 24.5043C17 24.2095 17.242 23.9675 17.5368 23.9675L30.1839 23.9675L26.3513 20.142C26.147 19.9306 26.147 19.59 26.3513 19.3862C26.5628 19.1747 26.8957 19.1747 27.1072 19.3862L31.8471 24.1261C32.0514 24.3305 32.0514 24.6705 31.8471 24.8744L27.1072 29.6143Z" fill="#D58C51"/>
</g>
<defs>
<clipPath id="clip0">
<rect width="15" height="15" fill="white" transform="translate(32 32) rotate(-180)"/>
</clipPath>
</defs>
</svg>
