<svg width="50" height="50" viewBox="0 0 50 50" fill="none" xmlns="http://www.w3.org/2000/svg">
<circle cx="25" cy="25" r="23.75" stroke="white" stroke-width="0.5"/>
<g clip-path="url(#clip0)">
<path d="M21.8928 19.3857C22.1043 19.1742 22.4372 19.1742 22.6487 19.3857C22.853 19.59 22.853 19.9301 22.6487 20.1339L18.8161 23.9666H31.4632C31.758 23.9666 32 24.2009 32 24.4957C32 24.7905 31.758 25.0325 31.4632 25.0325H18.8161L22.6487 28.858C22.853 29.0694 22.853 29.41 22.6487 29.6138C22.4372 29.8253 22.1043 29.8253 21.8928 29.6138L17.1529 24.8739C16.9486 24.6695 16.9486 24.3295 17.1529 24.1256L21.8928 19.3857Z" fill="white"/>
</g>
<defs>
<clipPath id="clip0">
<rect width="15" height="15" fill="white" transform="translate(17 17)"/>
</clipPath>
</defs>
</svg>
