<svg width="50" height="50" viewBox="0 0 50 50" fill="none" xmlns="http://www.w3.org/2000/svg">
<circle cx="25" cy="25" r="23.75" transform="rotate(-180 25 25)" stroke="#D58C51"/>
<g clip-path="url(#clip0)">
<path d="M22.8928 20.3857C23.1043 20.1742 23.4372 20.1742 23.6487 20.3857C23.853 20.59 23.853 20.9301 23.6487 21.1339L19.8161 24.9666L32.4632 24.9666C32.758 24.9666 33 25.2009 33 25.4957C33 25.7905 32.758 26.0325 32.4632 26.0325L19.8161 26.0325L23.6487 29.858C23.853 30.0694 23.853 30.41 23.6487 30.6138C23.4372 30.8253 23.1043 30.8253 22.8928 30.6138L18.1529 25.8739C17.9486 25.6695 17.9486 25.3295 18.1529 25.1256L22.8928 20.3857Z" fill="#D58C51"/>
</g>
<defs>
<clipPath id="clip0">
<rect width="15" height="15" fill="white" transform="translate(18 18)"/>
</clipPath>
</defs>
</svg>
