<svg width="31" height="30" viewBox="0 0 31 30" fill="none" xmlns="http://www.w3.org/2000/svg">
<path d="M28.8478 18.8687L26.874 16.4966C26.8343 16.4489 26.784 16.4104 26.7269 16.3839C26.6697 16.3575 26.6072 16.3438 26.5439 16.3438H24.2169C24.1954 16.0567 24.1545 15.7712 24.0944 15.4893C25.3449 14.1326 26.1984 12.4774 26.5666 10.6946C26.5666 10.6918 26.5666 10.689 26.5666 10.6862C26.5787 10.6253 26.5762 10.5625 26.5595 10.5026C26.5427 10.4428 26.512 10.3874 26.4698 10.3407L23.6362 7.25167C23.6391 7.24628 23.6427 7.24183 23.6456 7.23644C23.9239 6.69935 24.0318 6.09463 23.9559 5.49832C23.88 4.90201 23.6236 4.34073 23.219 3.88505C22.8144 3.42937 22.2795 3.09964 21.6818 2.9373C21.084 2.77496 20.45 2.78728 19.8595 2.97269C19.7794 2.99783 19.7089 3.04547 19.657 3.10954C19.605 3.17361 19.5739 3.2512 19.5677 3.33243C19.5614 3.41366 19.5803 3.49485 19.6219 3.56564C19.6636 3.63644 19.726 3.69364 19.8014 3.72995C20.5652 4.09769 20.5291 4.18722 20.2501 4.88308C20.2121 4.97683 20.1709 5.08347 20.1291 5.19433C19.7287 5.11863 19.27 4.96816 19.1068 4.7605C19.0539 4.6933 18.9809 4.64353 18.8977 4.618C18.8145 4.59247 18.7252 4.59242 18.6419 4.61786C18.5587 4.6433 18.4856 4.69298 18.4327 4.76013C18.3797 4.82727 18.3495 4.9086 18.3461 4.993C18.3429 5.06894 18.2853 6.86495 19.4766 7.82636C19.9755 8.21716 20.603 8.4213 21.2446 8.40152C21.3361 8.40152 21.4301 8.3973 21.5255 8.39074L22.734 10.547C21.9107 11.3461 21.2712 12.3045 20.8573 13.3595C20.3895 12.9174 19.8673 12.5327 19.3025 12.2139L19.5706 11.8743C19.638 11.7878 19.6674 11.679 19.6522 11.5716C19.6371 11.4642 19.5786 11.367 19.4896 11.3012C19.4007 11.2354 19.2884 11.2064 19.1774 11.2204C19.0663 11.2345 18.9655 11.2905 18.897 11.3762L18.5338 11.8349C17.5953 11.4304 16.58 11.2193 15.5527 11.215H15.4471C14.4194 11.2191 13.4038 11.4302 12.465 11.8349L12.1017 11.3762C12.0681 11.3331 12.0259 11.2968 11.9777 11.2694C11.9295 11.2421 11.8762 11.2243 11.8209 11.217C11.7655 11.2096 11.7092 11.213 11.6552 11.2268C11.6012 11.2406 11.5505 11.2646 11.5062 11.2974C11.4618 11.3303 11.4245 11.3712 11.3966 11.4181C11.3686 11.4649 11.3505 11.5166 11.3432 11.5702C11.336 11.6238 11.3398 11.6782 11.3544 11.7304C11.3689 11.7826 11.394 11.8315 11.4282 11.8743L11.6978 12.2139C11.133 12.5327 10.6108 12.9175 10.1429 13.3595C9.72848 12.3044 9.08827 11.3459 8.26429 10.547L9.4728 8.39074C9.56798 8.3973 9.66195 8.40152 9.75374 8.40152C10.3953 8.42128 11.0228 8.21714 11.5217 7.82636C12.713 6.86542 12.6554 5.06894 12.6522 4.993C12.6488 4.9086 12.6186 4.82727 12.5656 4.76013C12.5127 4.69298 12.4396 4.6433 12.3564 4.61786C12.2731 4.59242 12.1838 4.59247 12.1006 4.618C12.0174 4.64353 11.9444 4.6933 11.8915 4.7605C11.7283 4.96816 11.2696 5.11863 10.869 5.19433C10.8278 5.0837 10.7867 4.978 10.7479 4.88308C10.4689 4.18722 10.4331 4.09769 11.1967 3.72995C11.2721 3.69382 11.3347 3.63679 11.3765 3.56613C11.4182 3.49546 11.4374 3.41436 11.4314 3.33315C11.4254 3.25194 11.3945 3.17429 11.3428 3.1101C11.291 3.04591 11.2207 2.99807 11.1407 2.97269C10.5503 2.78773 9.91656 2.77577 9.31911 2.9383C8.72167 3.10084 8.18719 3.43061 7.78282 3.8862C7.37845 4.34179 7.12222 4.90286 7.04634 5.49894C6.97046 6.09501 7.0783 6.6995 7.35632 7.23644C7.35899 7.24183 7.36286 7.24652 7.36577 7.25167L4.53218 10.3407V10.3424C4.48864 10.3895 4.45703 10.4459 4.43984 10.5069C4.42265 10.5679 4.42035 10.6319 4.43312 10.6939C4.80137 12.4766 5.65476 14.1318 6.90513 15.4886C6.84453 15.7707 6.80319 16.0564 6.78137 16.3438H4.45637C4.39304 16.3438 4.33052 16.3575 4.27339 16.3839C4.21626 16.4104 4.16599 16.4489 4.12627 16.4966L2.15244 18.8687C2.11746 18.9107 2.09135 18.9589 2.07562 19.0106C2.05989 19.0623 2.05483 19.1165 2.06075 19.1701C2.07269 19.2784 2.12859 19.3776 2.21614 19.446C2.30368 19.5144 2.41571 19.5463 2.52758 19.5347C2.63945 19.5231 2.74199 19.4691 2.81264 19.3843L4.65932 17.1653H6.76296C6.7881 18.0885 6.96805 19.0016 7.29578 19.869L4.31687 20.7812C4.25954 20.7987 4.20672 20.8279 4.16192 20.8666C4.11711 20.9054 4.08135 20.953 4.057 21.0062L2.86617 23.612C2.84232 23.6614 2.82891 23.715 2.82672 23.7695C2.82452 23.824 2.83358 23.8784 2.85338 23.9295C2.87317 23.9806 2.9033 24.0273 2.94199 24.067C2.98068 24.1067 3.02717 24.1385 3.07872 24.1605C3.13027 24.1826 3.18586 24.1945 3.24222 24.1955C3.29859 24.1966 3.3546 24.1867 3.40697 24.1665C3.45935 24.1464 3.50704 24.1163 3.54726 24.078C3.58747 24.0398 3.6194 23.9942 3.64117 23.9439L4.75523 21.5064L7.62636 20.627C7.95287 21.2845 8.36619 21.8982 8.85595 22.4528L7.00467 23.1899C6.9306 23.2193 6.86668 23.2685 6.82031 23.3317C6.77393 23.3949 6.74699 23.4695 6.74262 23.5468L6.56389 26.7444C6.56088 26.7982 6.56885 26.852 6.58734 26.9028C6.60583 26.9536 6.63448 27.0004 6.67166 27.0405C6.70883 27.0806 6.7538 27.1132 6.804 27.1365C6.8542 27.1598 6.90864 27.1732 6.96422 27.1761H6.98844C7.0966 27.176 7.20062 27.1359 7.27919 27.0639C7.35776 26.992 7.40494 26.8937 7.41106 26.7892L7.57526 23.8501L9.48297 23.0905C10.662 24.1731 12.1352 24.9086 13.7302 25.2109C14.3073 25.321 14.894 25.3765 15.4822 25.3768C17.5121 25.3819 19.4805 24.7029 21.0494 23.4564C21.2012 23.3354 21.3468 23.2089 21.4887 23.0795L23.4243 23.8501L23.5892 26.7892C23.5951 26.8939 23.6422 26.9924 23.7208 27.0646C23.7995 27.1367 23.9037 27.177 24.012 27.1771H24.0363C24.0918 27.1742 24.1463 27.1607 24.1965 27.1374C24.2467 27.1141 24.2917 27.0815 24.3288 27.0415C24.366 27.0014 24.3947 26.9546 24.4131 26.9038C24.4316 26.853 24.4396 26.7991 24.4366 26.7453L24.2579 23.5478C24.2535 23.4704 24.2266 23.3958 24.1802 23.3326C24.1338 23.2694 24.0699 23.2203 23.9958 23.1908L22.1215 22.4446C22.6143 21.8922 23.0309 21.2802 23.3608 20.6239L26.2453 21.5073L27.3593 23.9448C27.3811 23.9951 27.413 24.0407 27.4532 24.079C27.4934 24.1172 27.5411 24.1473 27.5935 24.1675C27.6459 24.1877 27.7019 24.1975 27.7583 24.1965C27.8146 24.1955 27.8702 24.1836 27.9218 24.1615C27.9733 24.1394 28.0198 24.1076 28.0585 24.0679C28.0972 24.0282 28.1273 23.9815 28.1471 23.9304C28.1669 23.8793 28.176 23.8249 28.1738 23.7704C28.1716 23.7159 28.1582 23.6624 28.1343 23.6129L26.9435 21.0071C26.9191 20.954 26.8834 20.9064 26.8386 20.8676C26.7938 20.8288 26.7409 20.7997 26.6836 20.7821L23.6953 19.8681C24.0266 19.0025 24.2092 18.0901 24.2358 17.1674H26.3429L28.1895 19.3864C28.2602 19.4712 28.3627 19.5253 28.4746 19.5368C28.5865 19.5484 28.6985 19.5165 28.786 19.4481C28.8736 19.3797 28.9295 19.2805 28.9414 19.1722C28.9534 19.064 28.9204 18.9555 28.8497 18.8708L28.8478 18.8687ZM23.4361 11.0232H25.6177C25.23 12.4739 24.4929 13.8152 23.4666 14.9373C22.7304 14.8727 22.042 14.5564 21.5248 14.0453C21.7984 13.0253 22.4398 12.0107 23.4361 11.0232ZM23.5088 10.2029L22.4109 8.24542C22.6594 8.17255 22.891 8.05407 23.0932 7.89644L25.2089 10.2029H23.5088ZM21.0758 3.65636C21.4451 3.69481 21.7993 3.81922 22.1081 4.01897C22.417 4.21871 22.6712 4.48785 22.8492 4.80338C23.0272 5.11891 23.1236 5.47144 23.1301 5.83086C23.1367 6.19028 23.0532 6.54589 22.8868 6.8673C22.8072 7.02841 22.6891 7.16886 22.5422 7.27702C22.3954 7.38519 22.224 7.45796 22.0423 7.48933H22.036C21.9368 7.5066 21.8358 7.51188 21.7352 7.50503C21.5177 7.49245 21.3095 7.41555 21.1386 7.28473C20.9678 7.15391 20.8425 6.97548 20.7798 6.77355C20.7064 6.55974 20.6923 6.33102 20.7389 6.11027C20.8105 5.79201 20.9115 5.48061 21.0406 5.1798C21.2431 4.67519 21.4504 4.15863 21.0758 3.65636ZM19.2724 5.81097C19.477 5.88607 19.6876 5.94486 19.9021 5.98675C19.8358 6.33329 19.8602 6.69037 19.9728 7.0255C19.9962 7.09145 20.0232 7.15615 20.0537 7.21933C20.0443 7.21206 20.0334 7.20644 20.0242 7.19894C19.6195 6.83104 19.3547 6.34192 19.2724 5.8105V5.81097ZM7.53385 14.9366C6.50762 13.8145 5.77048 12.4732 5.38274 11.0225H7.56436C8.56072 12.01 9.20179 13.0246 9.47571 14.0439C8.9586 14.5553 8.27019 14.8718 7.53385 14.9366ZM10.9797 7.19542C10.9695 7.20363 10.9579 7.20972 10.9475 7.21769C10.9779 7.15466 11.0048 7.09011 11.0281 7.02433C11.1408 6.68911 11.165 6.33194 11.0986 5.98535C11.312 5.94358 11.5215 5.8851 11.7251 5.8105C11.6432 6.33966 11.3808 6.82713 10.9797 7.19542ZM7.98165 5.18331C8.11916 4.77477 8.37566 4.41335 8.7203 4.14248C9.06495 3.87161 9.48309 3.7028 9.92448 3.65636C9.54982 4.1591 9.75713 4.67589 9.9596 5.1798C10.0891 5.48042 10.1905 5.79166 10.2626 6.1098C10.3088 6.3308 10.2943 6.55969 10.2204 6.77355C10.1581 6.97594 10.0329 7.15489 9.86192 7.28611C9.69093 7.41734 9.48237 7.4945 9.26452 7.50714C9.16421 7.51399 9.06341 7.50871 8.96445 7.49144L8.95718 7.49003C8.66608 7.43977 8.40601 7.28331 8.23062 7.05292C8.2282 7.04988 8.22529 7.04706 8.22287 7.04402C8.18126 6.98842 8.1444 6.92964 8.11268 6.86824C7.84036 6.34549 7.79324 5.73961 7.98165 5.18331ZM7.90754 7.89644C8.10977 8.0541 8.34149 8.17259 8.59003 8.24542L7.49219 10.2027H5.79179L7.90754 7.89644ZM13.8939 24.4056C12.0831 24.0535 10.4591 23.0934 9.30898 21.6949C8.15882 20.2963 7.5565 18.5493 7.60844 16.7626C7.6145 16.4219 7.64974 16.0823 7.71379 15.7473C8.69605 15.635 9.59954 15.1717 10.2471 14.4482L10.2531 14.4418C10.2577 14.4367 10.2628 14.4322 10.2674 14.4271C10.9009 13.6897 11.692 13.0941 12.5863 12.6812C13.4806 12.2682 14.4568 12.0479 15.4476 12.0353H15.5519C16.5428 12.0478 17.5192 12.2681 18.4136 12.681C19.308 13.0939 20.0993 13.6896 20.7328 14.4271C20.7374 14.4322 20.7425 14.4367 20.7471 14.4418L20.7532 14.4482C21.4007 15.1717 22.3042 15.635 23.2864 15.7473C23.3597 16.1339 23.3955 16.5262 23.3935 16.9192C23.3952 18.0482 23.1375 19.1635 22.639 20.1844C22.1406 21.2052 21.4139 22.106 20.5115 22.8217C19.5987 23.5439 18.5315 24.0606 17.387 24.3346C16.2425 24.6086 15.0493 24.6329 13.8939 24.4058V24.4056Z" fill="#D58C51"/>
<path d="M14.4103 23.1644C12.9857 22.9652 11.6729 22.3047 10.6859 21.2908C10.6095 21.2121 10.5041 21.1658 10.3926 21.1619C10.2812 21.158 10.1726 21.1967 10.0904 21.2698C10.0083 21.3428 9.95922 21.4443 9.95386 21.5521C9.9485 21.6599 9.98729 21.7654 10.0618 21.8458C11.1761 22.9949 12.6598 23.7449 14.271 23.9734C14.2943 23.9772 14.3177 23.979 14.3413 23.9791C14.4478 23.9793 14.5505 23.9406 14.6289 23.8708C14.7073 23.8011 14.7557 23.7053 14.7645 23.6025C14.7732 23.4998 14.7416 23.3976 14.676 23.3164C14.6105 23.2352 14.5157 23.1808 14.4105 23.1641L14.4103 23.1644Z" fill="#D58C51"/>
<path d="M9.96966 20.3272L9.94859 20.2857C9.90141 20.1881 9.81644 20.1124 9.71204 20.0749C9.60763 20.0374 9.49219 20.0412 9.39067 20.0855C9.28914 20.1297 9.20968 20.2109 9.16947 20.3114C9.12926 20.4118 9.13153 20.5236 9.17578 20.6225C9.17578 20.6225 9.18837 20.6501 9.21549 20.701C9.2677 20.7961 9.35649 20.8676 9.46267 20.8999C9.56884 20.9322 9.6839 20.9228 9.78297 20.8737C9.88204 20.8246 9.95719 20.7398 9.99216 20.6375C10.0271 20.5352 10.0191 20.4238 9.96991 20.3272H9.96966Z" fill="#D58C51"/>
</svg>
