<svg width="896" height="212" viewBox="0 0 896 212" fill="none" xmlns="http://www.w3.org/2000/svg">
<path d="M0 27.1889H33.6921V142.956H52.7167V27.1889H86.3627V10.3949H0V27.1889Z" fill="white"/>
<path d="M138.665 68.2938V27.1889H150.77C158.733 27.1889 165.238 28.6127 170.148 31.3989C174.428 33.8484 176.607 39.3443 176.607 47.749C176.607 56.567 173.631 68.2938 147.917 68.2938H138.665ZM178.801 78.26C185.291 74.4174 189.863 69.7328 192.364 64.2981C194.773 59.0624 195.985 53.4899 195.985 47.7337C195.985 33.5728 191.597 23.6219 182.959 18.1566C174.812 13.0127 165.975 10.3949 156.723 10.3949H119.656V142.956H138.681V85.6083L181.563 142.956H204.484L159.347 84.3071C167.187 83.2813 173.723 81.2606 178.801 78.26Z" fill="white"/>
<path d="M240.969 142.956H259.993V10.3949H240.969V142.956Z" fill="white"/>
<path d="M289.497 27.1889H323.189V142.956H342.198V27.1889H375.86V10.3949H289.497V27.1889Z" fill="white"/>
<path d="M587.831 48.193L683.492 153.351V10.3949H664.482V105.158L568.807 0V142.956H587.831V48.193Z" fill="white"/>
<path d="M745.444 10.3949H726.435V142.956H745.444V10.3949Z" fill="white"/>
<path d="M817.416 85.1796L834.446 45.5138L851.353 85.1796H817.416ZM834.477 1.72987L772.754 142.956H792.76L810.22 101.958H858.534L876.055 142.956H896L834.477 1.72987Z" fill="white"/>
<path d="M171.621 192.757V177.968H180.259C182.759 177.968 184.754 178.657 186.258 180.035C187.761 181.412 188.498 183.204 188.498 185.393C188.498 187.551 187.746 189.312 186.258 190.69C184.754 192.068 182.759 192.757 180.259 192.757H171.621ZM184.171 195.834C186.933 195.191 189.127 193.935 190.768 192.068C192.395 190.2 193.208 187.965 193.208 185.393C193.208 182.209 192.026 179.606 189.664 177.57C187.301 175.534 184.232 174.523 180.473 174.523H163.413C163.106 174.523 162.722 174.738 162.262 175.151C161.802 175.58 161.572 175.932 161.572 176.207C161.572 176.483 161.802 176.835 162.262 177.233C162.722 177.646 163.106 177.845 163.413 177.845H166.987V211.617H171.59V196.186H179.66C182.882 201.835 187.147 207.101 192.456 211.985C192.839 211.985 193.438 211.633 194.266 210.928C195.095 210.224 195.509 209.688 195.509 209.336C191.183 205.356 187.408 200.855 184.171 195.834Z" fill="white"/>
<path d="M231.947 194.502H251.371V190.996H231.947V177.953H253.672V174.523H223.77C223.463 174.523 223.079 174.738 222.619 175.151C222.159 175.58 221.929 175.932 221.929 176.207C221.929 176.483 222.159 176.835 222.619 177.233C223.079 177.646 223.463 177.845 223.77 177.845H227.345V211.617H253.964V208.173H231.947V194.502Z" fill="white"/>
<path d="M298.488 191.226C294.652 189.603 292.028 188.302 290.648 187.322C289.267 186.357 288.576 185.117 288.576 183.632C288.576 181.933 289.328 180.54 290.816 179.438C292.32 178.335 294.376 177.8 296.984 177.8C300.129 177.8 302.86 178.642 305.161 180.341V184.367C305.161 184.658 305.407 185.01 305.883 185.454C306.358 185.898 306.757 186.112 307.064 186.112C307.371 186.112 307.754 185.898 308.215 185.454C308.675 185.01 308.905 184.658 308.905 184.367V178.106C305.837 175.457 301.894 174.125 297.091 174.125C292.98 174.125 289.788 175.013 287.518 176.774C285.247 178.534 284.112 180.907 284.112 183.877C284.112 186.388 284.971 188.378 286.705 189.848C288.438 191.317 291.43 192.91 295.695 194.64C295.956 194.747 296.355 194.9 296.846 195.114C300.574 196.63 303.044 197.808 304.256 198.635C305.468 199.462 306.067 200.61 306.067 202.049C306.067 204.024 305.208 205.57 303.474 206.688C301.74 207.805 299.454 208.356 296.616 208.356C292.811 208.356 289.742 207.453 287.395 205.647V201.774C287.395 201.483 287.149 201.131 286.643 200.687C286.137 200.243 285.738 200.028 285.431 200.028C285.124 200.028 284.741 200.243 284.311 200.687C283.866 201.131 283.651 201.498 283.651 201.774V207.974C287.103 210.622 291.415 211.954 296.554 211.954C300.927 211.954 304.348 211.066 306.803 209.306C309.258 207.53 310.485 205.034 310.485 201.774C310.485 199.447 309.672 197.609 308.061 196.293C306.496 195.007 303.29 193.308 298.488 191.226Z" fill="white"/>
<path d="M336.752 177.968H351.22V211.633H355.822V177.968H370.229V174.523H336.752V177.968Z" fill="white"/>
<path d="M403.998 197.747L412.636 179.728L421.396 197.747H403.998ZM406.008 174.523C405.701 174.523 405.317 174.738 404.857 175.151C404.397 175.58 404.167 175.932 404.167 176.207C404.167 176.452 404.397 176.789 404.857 177.218C405.317 177.646 405.701 177.861 406.008 177.861H409.061L393.151 210.194C393.151 210.331 393.734 210.668 394.915 211.204C396.081 211.74 396.848 212 397.186 212L402.371 201.192H422.946L428.131 212C428.515 212 429.282 211.74 430.433 211.235C431.583 210.729 432.167 210.377 432.167 210.209L414.768 174.523H406.008Z" fill="white"/>
<path d="M488.243 197.533C488.243 200.886 487.231 203.519 485.19 205.432C483.15 207.346 480.327 208.295 476.721 208.295C473.07 208.295 470.231 207.346 468.191 205.432C466.15 203.519 465.138 200.886 465.138 197.533V174.523H456.96C456.653 174.523 456.27 174.738 455.809 175.151C455.349 175.58 455.119 175.932 455.119 176.207C455.119 176.483 455.349 176.835 455.809 177.233C456.27 177.646 456.653 177.845 456.96 177.845H460.535V197.518C460.535 201.865 462.023 205.356 464.999 208.02C467.976 210.668 471.888 212 476.721 212C481.523 212 485.405 210.668 488.397 208.02C491.373 205.371 492.861 201.865 492.861 197.518V174.523H488.243V197.533Z" fill="white"/>
<path d="M532.598 192.757V177.968H541.236C543.737 177.968 545.731 178.657 547.235 180.035C548.739 181.412 549.475 183.204 549.475 185.393C549.475 187.551 548.723 189.312 547.235 190.69C545.731 192.068 543.737 192.757 541.236 192.757H532.598ZM545.164 195.834C547.925 195.191 550.135 193.935 551.761 192.068C553.387 190.2 554.216 187.965 554.216 185.393C554.216 182.209 553.034 179.606 550.672 177.57C548.309 175.534 545.24 174.523 541.482 174.523H524.421C524.114 174.523 523.73 174.738 523.27 175.151C522.81 175.58 522.58 175.932 522.58 176.207C522.58 176.483 522.81 176.835 523.27 177.233C523.73 177.646 524.114 177.845 524.421 177.845H527.996V211.617H532.598V196.186H540.668C543.89 201.835 548.156 207.101 553.464 211.985C553.848 211.985 554.446 211.633 555.274 210.928C556.103 210.224 556.517 209.688 556.517 209.336C552.175 205.356 548.401 200.855 545.164 195.834Z" fill="white"/>
<path d="M594.367 197.747L603.005 179.728L611.766 197.747H594.367ZM596.392 174.523C596.086 174.523 595.702 174.738 595.242 175.151C594.781 175.58 594.551 175.932 594.551 176.207C594.551 176.452 594.781 176.789 595.242 177.218C595.702 177.646 596.086 177.861 596.392 177.861H599.446L583.535 210.194C583.535 210.331 584.118 210.668 585.3 211.204C586.466 211.74 587.233 212 587.57 212L592.756 201.192H613.33L618.516 212C618.9 212 619.667 211.74 620.818 211.235C621.968 210.729 622.551 210.377 622.551 210.209L605.153 174.523H596.392Z" fill="white"/>
<path d="M682.709 203.947L657.057 174.523H650.659C650.352 174.523 649.968 174.738 649.508 175.151C649.048 175.58 648.818 175.932 648.818 176.207C648.818 176.483 649.048 176.835 649.508 177.233C649.968 177.646 650.352 177.845 650.659 177.845H654.234V211.617H658.437V182.193L684.075 211.617H686.836V174.523H682.694V203.947H682.709Z" fill="white"/>
<path d="M716.938 177.968H731.391V211.633H736.009V177.968H750.415V174.523H716.938V177.968Z" fill="white"/>
<path d="M507.406 40.9211C506.393 41.0742 505.335 40.8445 504.153 40.125C503.601 39.7882 502.634 39.0993 502.496 38.3339C502.358 37.645 502.834 36.7264 503.018 36.4662L503.494 35.8538C504.89 37.4919 506.194 39.1759 507.406 40.9211ZM521.598 53.6123C518.652 54.3931 514.678 53.6889 512.438 51.3313C512.423 51.3159 512.408 51.3006 512.377 51.2853C512.039 50.9179 511.733 50.5046 511.487 50.0453C511.318 49.7238 511.18 49.4023 511.057 49.0808C510.981 48.8818 510.95 48.6828 510.889 48.4838C510.858 48.3613 510.827 48.2541 510.797 48.1317C510.735 47.8561 510.72 47.5958 510.689 47.3203C510.689 47.2744 510.674 47.2437 510.674 47.2131C510.643 46.7692 510.643 46.3252 510.705 45.8659C509.477 47.3356 508.25 48.79 507.022 50.2443C501.653 56.5976 496.835 62.3079 483.564 77.173C482.766 76.2544 482.766 74.8001 482.766 74.7694C495.331 60.6851 500.118 54.9901 505.35 48.79C506.179 47.8255 506.976 46.8763 507.805 45.9118C507.467 45.9272 507.13 45.9731 506.792 45.9731C505.212 45.9731 503.463 45.5291 501.606 44.3963C499.351 43.0184 498.032 41.2732 497.663 39.2371C497.08 36.0834 499.075 33.4809 499.167 33.3737L500.026 32.2715L506.762 23.7443L504.568 22.3971C505.964 21.6929 507.345 21.004 508.725 20.2998C510.152 19.5802 511.594 18.8454 513.083 18.0953C512.745 19.8711 512.423 21.5857 512.101 23.285C511.886 24.3873 511.686 25.5049 511.472 26.6071L508.649 24.8925L500.87 34.7362C500.839 34.7362 499.397 36.6958 499.796 38.8391C500.042 40.2016 501.023 41.4263 502.727 42.4826C503.141 42.7276 503.54 42.9266 503.923 43.095C504.031 43.1409 504.138 43.1868 504.245 43.2328C504.552 43.3552 504.844 43.4471 505.135 43.5236C505.212 43.5389 505.289 43.5696 505.381 43.5849C505.718 43.6614 506.025 43.692 506.347 43.7227C506.485 43.738 506.623 43.738 506.762 43.738C506.93 43.738 507.099 43.738 507.253 43.7227C507.406 43.7073 507.575 43.692 507.713 43.6767C507.713 43.6767 507.713 43.6767 507.728 43.6767C508.188 43.6002 508.618 43.4777 509.002 43.3399C509.692 43.0797 510.275 42.7429 510.735 42.4061C512.039 40.8599 513.328 39.3289 514.556 37.8287C514.893 37.4 515.2 36.9867 515.491 36.5733C516.765 34.874 518.13 33.2972 519.465 31.7356L519.573 31.5979L520.11 30.909L520.156 30.9243C520.37 30.664 520.6 30.3885 520.846 30.1282C522.227 28.383 523.516 26.7296 524.651 25.2446L522.365 23.8362C525.234 22.3818 527.98 21.004 530.88 19.5496C530.328 22.4584 529.806 25.214 529.238 28.0462L526.553 26.3928C525.311 28.1993 523.914 29.8986 522.503 31.5519C522.012 32.1796 521.49 32.8226 520.969 33.4656C520.156 34.476 519.312 35.5017 518.437 36.558L515.507 40.3393C513.635 43.1103 511.993 46.3711 513.405 48.9737C514.678 51.3619 518.391 52.158 521.03 51.4537C524.022 50.6424 526.293 48.5144 528.226 46.019C528.824 45.2382 529.392 44.4269 529.929 43.6002C529.99 43.5083 530.051 43.4012 530.113 43.3093C530.619 42.5285 531.11 41.7478 531.586 40.967C531.893 40.4465 532.184 39.9872 532.506 39.5127L530.097 38.043C532.951 36.6192 535.728 35.2261 538.643 33.7564C538.091 36.6805 537.554 39.4514 537.017 42.2836L534.393 40.6761C534.087 41.1507 533.764 41.6406 533.457 42.1458C530.742 46.5395 527.367 52.0355 521.598 53.6123ZM515.691 94.9927C512.96 89.2365 508.388 86.8177 501.898 86.5115C502.619 87.4454 503.263 88.6548 503.632 89.956C504.307 92.3902 503.54 94.6406 501.346 95.5745C497.479 97.2432 494.779 95.3755 493.137 90.0785C497.894 86.435 498.4 80.9084 498.062 75.5502C497.863 72.4272 497.372 69.4113 496.636 66.5638C502.205 60.1799 505.611 56.1842 509.094 52.0355L509.354 51.7446C510.628 53.8573 512.699 55.2504 515 56.0005C517.194 62.5681 518.33 69.4878 518.33 76.6525C518.314 82.9751 517.425 89.114 515.691 94.9927ZM506.485 113.685C502.788 116.165 498.093 117.022 493.091 116.471C499.612 115.231 503.279 112.46 506.762 108.48C510.183 104.576 511.441 100.489 511.165 95.7123C511.119 94.8243 511.073 94.1201 510.797 93.3853C512.53 96.0337 513.343 98.7894 513.313 101.484C511.502 105.847 509.232 109.934 506.485 113.685ZM495.945 124.57C489.609 125.519 482.689 124.356 476.89 122.273C470.185 119.839 464.048 115.798 459.062 110.654C453.983 105.388 450.087 98.9425 448.261 91.7931C446.205 83.7865 447.095 75.4584 449.028 67.5129C449.856 64.0531 450.746 60.5932 451.912 57.2406C452.741 54.9136 454.152 51.1629 456.101 49.4482C456.791 49.7391 456.101 49.4482 456.331 49.5554C459.614 51.1475 462.453 53.7042 462.79 58.5724C463.296 65.4921 463.128 72.3353 462.652 79.1938C462.069 87.2463 462.406 95.0387 466.303 102.31C468.988 107.317 474.067 111.955 478.946 114.619C485.696 118.308 490.974 119.579 500.364 120.712C498.952 122.09 497.479 123.36 495.945 124.57ZM483.855 131.826C483.073 132.178 482.26 132.5 481.446 132.806C477.304 133.403 472.977 133.189 468.482 132.01C457.436 129.117 449.795 121.784 443.474 112.399C439.577 106.597 436.769 100.351 434.913 93.8292C432.473 85.2562 432.565 76.4228 434.882 67.6354C436.631 61.0984 440.052 55.9393 444.916 51.4537C447.54 49.0196 450.255 48.0857 453.124 48.5297C451.283 49.9075 450.593 52.9234 449.795 55.0054C448.583 58.0213 447.662 61.0984 446.849 64.2215C444.502 73.1008 442.799 82.4087 444.855 91.5176C448.322 106.98 461.179 119.548 475.831 124.248C481.37 126.04 487.568 126.927 493.552 126.407C490.56 128.489 487.323 130.311 483.855 131.826ZM459.844 136.603C453.569 136.603 447.632 135.745 442.108 134.092C440.267 132.898 438.595 131.398 436.693 129.484C432.964 125.764 429.297 119.594 427.011 114.91C423.943 108.71 421.994 102.081 421.427 95.1611C420.798 87.9046 421.381 80.6941 423.145 73.6519C425.232 65.4156 429.436 58.1897 435.066 52.0967C437.981 48.943 444.026 44.9933 448.966 46.3405C447.079 46.7079 445.177 47.6724 444.302 48.1164C440.252 50.1678 437.843 54.0103 435.757 57.562C433.271 61.8027 431.599 66.824 430.832 71.7076C429.62 79.4081 429.604 87.3688 431.921 94.8703C435.051 104.913 439.73 114.083 447.003 121.983C453.723 129.27 461.517 133.878 470.998 135.638C467.423 136.266 463.711 136.603 459.844 136.603ZM417.254 118.538C416.41 117.62 415.658 116.655 414.876 115.691C411.853 109.353 411.117 102.402 410.948 95.3755C410.764 87.3688 412.006 79.4846 414.385 71.9679C417.116 63.3489 421.411 55.3882 427.978 49.0961C432.197 45.0392 436.6 42.7735 442.415 41.9774C442.86 41.9315 445.484 42.1152 445.959 42.3142C440.145 45.0852 433.348 48.4225 429.558 53.9032C426.981 57.5774 424.219 61.3587 422.715 65.5075C420.092 72.7333 418.021 80.2348 417.883 88.0883C417.683 98.8506 418.726 108.159 423.728 117.436C425.968 121.585 427.84 125.641 430.479 129.101C425.539 126.254 421.089 122.717 417.254 118.538ZM405.394 99.2946C402.694 92.1606 401.328 84.5519 401.328 76.6525C401.328 68.753 402.709 61.1291 405.409 53.9644C408.125 46.8151 412.099 40.3547 417.223 34.7668C421.319 30.3119 426.183 26.6071 431.645 23.6525C433.9 23.2544 436.263 23.2391 438.718 23.4075C448.598 24.0964 456.331 28.5054 461.547 33.7105C467.592 39.7576 470.722 47.7489 471.351 56.5363C471.689 61.2056 472.072 65.8902 472.333 70.5748C472.686 76.8821 474.619 82.6842 478.148 87.8281C480.05 90.5684 482.996 92.0687 486.402 92.1759C488.688 92.2371 490.253 92.8648 491.726 94.9621C495.792 100.672 501.514 100.718 506.056 95.4061C506.393 95.008 507.206 93.3393 507.253 92.2524C508.618 94.212 508.25 100.351 506.669 103.397C503.187 110.118 494.61 114.94 487.415 113.195C484.193 112.43 477.166 110.011 473.1 105.571C468.743 100.81 465.49 95.5132 465.72 88.7007C465.874 82.9292 466.257 77.1424 466.319 71.3861C466.365 66.5025 466.38 61.5883 465.843 56.766C465.107 50.0453 462.13 46.0496 457.037 42.2836C455.042 40.8139 450.884 39.6045 448.291 39.2677C438.549 38.0583 430.709 41.8396 423.989 48.9277C420.169 52.9846 417.683 57.3937 415.182 62.1701C408.539 74.8613 407.174 87.1698 407.956 100.32C408.079 102.402 408.324 104.316 408.616 106.199C407.419 103.979 406.299 101.698 405.394 99.2946ZM485.267 51.5915C486.878 52.3876 490.483 58.6949 491.48 60.8382C490.453 62.0017 489.333 63.2723 488.151 64.6042C487.43 62.1701 485.865 55.6025 485.267 51.5915ZM479.053 46.0802C479.728 47.0447 481.983 47.7183 482.781 52.0202C483.533 56.1077 484.116 60.9454 485.067 64.9716C485.267 65.7983 485.42 66.6403 485.65 67.467C484.638 68.5846 483.594 69.7634 482.474 71.0187C482.306 63.9306 480.679 53.0153 479.053 46.0802ZM485.604 78.9948V78.9794C487.507 76.8362 488.934 75.2593 490.514 73.4682C492.355 74.2336 493.782 74.1265 494.61 74.1571C495.239 76.9433 493.674 77.969 492.063 79.5765C490.529 81.1533 487.093 80.8471 485.604 78.9948ZM494.196 82.8679C493.997 84.8581 492.677 87.5066 490.1 88.517C486.786 89.7876 483.165 88.8232 480.603 85.6848C477.764 82.225 476.445 78.1681 475.969 73.7284C475.187 66.5944 474.404 59.4298 473.438 52.2804C473.039 49.1268 471.719 45.1158 470.906 41.3804C475.662 42.5898 476.031 44.1513 478.04 54.2247C478.777 57.9142 478.838 61.7414 479.16 65.5075C479.421 68.5693 479.16 71.7383 479.943 74.6317C479.974 74.6776 480.557 77.4179 482.076 79.5612C484.208 82.8526 487.783 84.8122 494.196 82.8679ZM459.844 16.7481C468.528 16.7481 476.598 18.3555 483.855 21.5245C489.148 23.8362 493.905 26.8214 498.062 30.4191L497.065 31.6897C496.774 32.0725 494.273 35.4864 495.025 39.7423C495.377 41.7019 496.559 44.5034 500.241 46.7538C501.008 47.2284 501.791 47.6265 502.573 47.9173C499.95 51.0098 497.311 54.1481 493.628 58.3887C491.051 52.9846 488.351 49.0043 483.733 44.6565C479.912 41.0589 474.865 38.2573 470.937 37.002C469.08 36.4049 466.319 33.6799 464.861 32.1949C461.164 28.4136 456.76 25.2446 452.495 22.9023C449.243 21.1112 446.236 20.1314 442.983 19.0597C448.261 17.5288 453.907 16.7481 459.844 16.7481ZM533.534 89.3896C533.596 88.9916 533.534 89.3896 533.534 89.3896C534.225 85.2255 534.593 80.9849 534.593 76.6525C534.593 67.7732 533.135 59.2154 530.282 51.1782C532.307 49.0349 533.902 46.5854 535.237 44.3963L535.621 44.6259C536.357 45.1005 537.293 45.1311 538.106 44.779C538.904 44.4269 539.487 43.692 539.656 42.7888L540.914 36.2518L542.279 29.424C542.325 29.2403 542.126 29.0872 541.942 29.179L537.477 31.2917H537.446L528.931 35.5782C528.057 36.0222 527.474 36.9101 527.428 37.9205C527.382 38.9309 527.873 39.8648 528.763 40.4006C528.164 41.3651 527.566 42.3295 526.922 43.2328C525.648 40.6608 524.221 38.1808 522.656 35.7926C523.347 34.9506 524.007 34.1392 524.62 33.3584C525.403 32.4246 526.369 31.2764 527.32 30.0363L527.919 30.4191C528.671 30.863 529.591 30.9396 530.404 30.5722C531.202 30.1894 531.785 29.4546 531.969 28.582L534.378 15.7683C534.424 15.508 534.179 15.2937 533.933 15.4162C533.933 15.4162 523.914 20.0089 521.214 21.3714C520.34 21.8154 519.757 22.7186 519.711 23.7137C519.695 24.5863 520.048 25.413 520.723 25.9488C520.125 26.7296 519.496 27.5103 518.867 28.337L518.483 28.7657C518.33 28.9035 518.192 29.0413 518.054 29.1943L517.87 29.424C516.78 28.1227 515.629 26.8367 514.433 25.5967C514.694 24.2342 514.954 22.7952 514.954 22.7952L516.565 13.9159C516.611 13.7169 516.412 13.5638 516.228 13.6403L506.393 18.4933C501.53 14.8191 496.129 11.7573 490.268 9.33848C481.109 5.57245 470.86 3.65881 459.829 3.65881C448.706 3.65881 438.38 5.57245 429.175 9.33848C419.954 13.1198 411.96 18.4474 405.394 25.1834C398.827 31.9194 393.749 39.8188 390.266 48.6369C386.783 57.4549 385.034 66.8853 385.034 76.6678C385.034 86.4197 386.799 95.85 390.297 104.699C393.795 113.563 398.873 121.462 405.425 128.183C411.976 134.903 419.985 140.231 429.221 144.028C438.457 147.809 448.752 149.738 459.814 149.738C470.753 149.738 480.971 147.824 490.176 144.028C499.382 140.246 507.421 134.888 514.049 128.122C520.662 121.355 525.802 113.471 529.284 104.668C531.264 99.7385 532.66 94.6406 533.534 89.3896Z" fill="white"/>
</svg>
