<svg width="125" height="117" viewBox="0 0 125 117" fill="none" xmlns="http://www.w3.org/2000/svg">
<path d="M97.2793 29.864C96.4787 29.9925 95.6278 29.8073 94.6946 29.2327C94.2508 28.9639 93.4854 28.4105 93.3787 27.802C93.2721 27.2479 93.6454 26.5156 93.7881 26.3012L94.1684 25.8156C95.282 27.1076 96.314 28.4602 97.2793 29.864ZM108.565 40.0284C106.227 40.6574 103.059 40.0907 101.286 38.1981C101.272 38.1839 101.254 38.1721 101.24 38.1571C100.967 37.8584 100.723 37.5328 100.527 37.1687C100.389 36.9125 100.28 36.6555 100.19 36.397C100.135 36.2401 100.101 36.0817 100.061 35.924C100.038 35.8294 100.008 35.7364 99.9903 35.641C99.948 35.4243 99.926 35.2083 99.9103 34.9908C99.9088 34.9616 99.9041 34.9316 99.9025 34.9025C99.8821 34.5446 99.8829 34.1867 99.9221 33.8273C98.9442 35.0073 97.9663 36.1684 96.9884 37.3302C92.7208 42.4239 88.8947 46.9925 78.3323 58.8957C77.6955 58.1642 77.6955 56.9913 77.6955 56.9724C87.6894 45.695 91.4943 41.1367 95.6553 36.1684C96.3132 35.4006 96.9531 34.6313 97.6111 33.8628C97.3444 33.8809 97.0778 33.9172 96.8112 33.9172C95.5486 33.9172 94.1614 33.5593 92.6855 32.6481C90.8889 31.5398 89.8404 30.1462 89.5557 28.5193C89.0931 25.9993 90.6756 23.9081 90.7469 23.819L91.4347 22.9417L96.7924 16.1156L95.0499 15.0428C96.1611 14.48 97.2542 13.9219 98.3568 13.3591C99.4947 12.7782 100.642 12.1925 101.825 11.5934C101.556 13.0131 101.298 14.3877 101.043 15.7553C100.877 16.6429 100.712 17.5281 100.544 18.4204L98.3035 17.0449L92.1162 24.9265C92.0981 24.9265 90.943 26.499 91.2622 28.215C91.4582 29.306 92.2409 30.2881 93.592 31.1292C93.919 31.331 94.2351 31.4854 94.5448 31.621C94.6319 31.6589 94.7174 31.6935 94.8028 31.7259C95.0467 31.8204 95.2843 31.8977 95.5157 31.956C95.5784 31.9726 95.6435 31.9954 95.7055 32.0088C95.9689 32.0664 96.223 32.0971 96.4693 32.1137C96.5806 32.1208 96.688 32.1208 96.7955 32.1208C96.9288 32.1208 97.0598 32.1153 97.1876 32.105C97.3131 32.0948 97.4401 32.0869 97.5601 32.068C97.5624 32.0672 97.5648 32.0672 97.5664 32.0672C97.9302 32.0081 98.2682 31.9119 98.5788 31.7929C99.1246 31.5832 99.5935 31.3112 99.9558 31.0393C100.987 29.8065 102.018 28.5721 102.996 27.3748C103.263 27.0358 103.512 26.6961 103.743 26.3737C104.757 25.0148 105.841 23.7465 106.908 22.4956L106.996 22.3821L107.424 21.8335L107.46 21.8516C107.638 21.6372 107.815 21.4228 108.011 21.2076C109.114 19.8132 110.128 18.4913 111.033 17.294L109.22 16.1676C111.496 15.0057 113.683 13.8975 115.995 12.7364C115.55 15.0601 115.142 17.2766 114.697 19.546L112.563 18.2233C111.567 19.6713 110.465 21.0294 109.345 22.3521C108.951 22.8519 108.538 23.3666 108.123 23.8821C107.472 24.6932 106.804 25.5145 106.109 26.3564L103.726 29.395C102.232 31.6116 100.934 34.2206 102.054 36.3126C103.068 38.2249 106.019 38.8681 108.118 38.2966C110.498 37.644 112.307 35.9406 113.835 33.9384C114.311 33.315 114.758 32.6623 115.188 32.0025C115.239 31.9245 115.289 31.8457 115.34 31.7676C115.743 31.1418 116.134 30.512 116.51 29.8964C116.76 29.4849 116.99 29.1097 117.24 28.7345L115.319 27.5545C117.595 26.4108 119.8 25.3025 122.112 24.1233C121.667 26.4644 121.241 28.6809 120.814 30.9502L118.734 29.6638C118.484 30.0382 118.236 30.4316 117.986 30.843C115.837 34.3625 113.152 38.7593 108.565 40.0284ZM103.871 73.1707C101.7 68.5548 98.0659 66.6283 92.8988 66.3729C93.4681 67.1194 93.9896 68.0929 94.2735 69.1294C94.8068 71.0772 94.1966 72.8791 92.4534 73.6295C89.3769 74.9695 87.2259 73.4687 85.928 69.2319C89.7157 66.3193 90.1063 61.8863 89.8404 57.5967C89.6804 55.0948 89.2891 52.682 88.7025 50.3937C93.1301 45.2828 95.8333 42.0825 98.607 38.7585L98.8203 38.526C99.8351 40.2176 101.485 41.3392 103.309 41.9407C105.059 47.1951 105.953 52.7466 105.953 58.4795C105.953 63.5384 105.245 68.461 103.871 73.1707ZM96.5532 88.1402C93.6093 90.1226 89.8757 90.8123 85.9014 90.378C91.0881 89.3864 94.0006 87.1604 96.7751 83.9791C99.4955 80.8505 100.493 77.5746 100.278 73.7556C100.238 73.047 100.21 72.4818 99.988 71.8961C101.368 74.0204 102.007 76.2196 101.994 78.3826C100.542 81.8658 98.738 85.137 96.5532 88.1402ZM88.1716 96.8613C83.1347 97.6172 77.6265 96.691 73.0193 95.0239C67.6844 93.0761 62.8129 89.8404 58.8472 85.7116C54.8109 81.493 51.7165 76.3284 50.2587 70.6089C48.6228 64.1919 49.3341 57.5257 50.8633 51.1623C51.5212 48.3916 52.2325 45.6217 53.1571 42.9402C53.815 41.0823 54.9356 38.0791 56.4821 36.7028C57.0334 36.9353 56.4821 36.7028 56.6601 36.7919C59.2738 38.0617 61.5323 40.1167 61.799 44.0129C62.2075 49.5527 62.0656 55.0404 61.6923 60.5274C61.2304 66.9799 61.497 73.2172 64.5907 79.0439C66.7245 83.0474 70.76 86.7655 74.6402 88.9016C80.0073 91.8536 84.2075 92.8704 91.6707 93.7761C90.5627 94.8678 89.3966 95.8957 88.1716 96.8613ZM78.5612 102.678C77.9315 102.955 77.2908 103.212 76.6454 103.46C73.3565 103.942 69.9115 103.766 66.3324 102.816C57.5486 100.493 51.4671 94.6305 46.4529 87.106C43.3593 82.4593 41.1188 77.454 39.6429 72.2359C37.7044 65.3719 37.7757 58.2943 39.6249 51.2521C41.0114 46.0159 43.7325 41.8863 47.6088 38.2943C49.6893 36.3457 51.8561 35.5914 54.1318 35.9493C52.6748 37.0575 52.1243 39.4743 51.4844 41.1359C50.5237 43.5487 49.7952 46.0151 49.1372 48.5177C47.2709 55.6308 45.9189 63.0844 47.5547 70.3764C50.3112 82.7628 60.5348 92.8255 72.1818 96.5956C76.5913 98.0326 81.5193 98.7412 86.2676 98.3266C83.8844 99.9993 81.3177 101.461 78.5612 102.678ZM59.4667 106.498C54.4737 106.498 49.7536 105.817 45.3629 104.487C43.9043 103.533 42.5696 102.332 41.0592 100.799C38.0894 97.815 35.18 92.8791 33.3662 89.1263C30.9305 84.1572 29.3832 78.8492 28.9205 73.3087C28.4234 67.5001 28.8853 61.7271 30.2898 56.0793C31.9436 49.4841 35.2867 43.6921 39.7676 38.8137C42.0794 36.2929 46.8936 33.1242 50.8201 34.2041C49.3247 34.502 47.8049 35.2753 47.1109 35.6324C43.8925 37.2766 41.972 40.3516 40.3181 43.1932C38.3443 46.5889 37.0111 50.6105 36.4065 54.5249C35.4459 60.6913 35.4286 67.0713 37.2778 73.0769C39.7676 81.1201 43.4832 88.4657 49.2627 94.7937C54.6047 100.627 60.8015 104.316 68.3486 105.733C65.4949 106.231 62.5338 106.498 59.4667 106.498ZM25.6026 92.023C24.9352 91.29 24.3338 90.5128 23.7166 89.7458C21.3114 84.664 20.7264 79.1046 20.5994 73.4687C20.4574 67.0516 21.4353 60.7425 23.3378 54.7196C25.5069 47.8201 28.9205 41.4393 34.1488 36.4001C37.5091 33.1463 41.0114 31.3365 45.6342 30.6925C45.9902 30.6562 48.0762 30.8052 48.4495 30.966C43.8259 33.1825 38.4164 35.8633 35.4106 40.242C33.3654 43.1916 31.161 46.2121 29.9698 49.5361C27.8893 55.3265 26.2362 61.3329 26.1288 67.6239C25.9688 76.2385 26.7954 83.7008 30.7783 91.1363C32.553 94.4603 34.0492 97.7047 36.147 100.484C32.1891 98.2052 28.6531 95.3746 25.6026 92.023ZM16.1741 76.6161C14.0294 70.903 12.9425 64.8004 12.9425 58.4803C12.9425 52.1586 14.0364 46.0442 16.1938 40.3082C18.3487 34.5777 21.5075 29.4061 25.5838 24.9383C28.839 21.3692 32.7027 18.4046 37.0543 16.0375C38.8454 15.7214 40.7204 15.7096 42.6707 15.8452C50.5308 16.3993 56.6742 19.9228 60.8211 24.1028C65.6282 28.9465 68.1118 35.3447 68.6097 42.3868C68.8764 46.1231 69.1783 49.8759 69.3916 53.6303C69.6763 58.6876 71.2054 63.3359 74.0152 67.4457C75.5264 69.6441 77.8743 70.8415 80.5766 70.9313C82.3905 70.9849 83.635 71.4855 84.809 73.1652C88.0454 77.7409 92.5977 77.7772 96.2073 73.5223C96.474 73.2007 97.1272 71.867 97.1554 71.0015C98.2392 72.5646 97.9498 77.4903 96.688 79.9212C93.9136 85.3009 87.1036 89.1617 81.3781 87.7673C78.8177 87.1596 73.2342 85.2119 69.9978 81.6545C66.5308 77.8474 63.9524 73.594 64.1304 68.1425C64.2551 63.514 64.557 58.8847 64.6103 54.2735C64.6456 50.3591 64.6636 46.4265 64.237 42.5665C63.6497 37.186 61.283 33.9865 57.2294 30.9668C55.6469 29.7868 52.3407 28.822 50.279 28.554C42.5264 27.5892 36.3022 30.6097 30.9501 36.2929C27.9097 39.5468 25.9335 43.0742 23.9464 46.9011C18.6671 57.0662 17.5786 66.9279 18.2005 77.4548C18.3001 79.1267 18.493 80.6535 18.7252 82.1645C17.7731 80.3689 16.8948 78.5339 16.1741 76.6161ZM79.6779 38.4109C80.9585 39.0439 83.8303 44.1036 84.6129 45.8188C83.795 46.7481 82.9049 47.7673 81.9631 48.8393C81.3946 46.8735 80.1595 41.6128 79.6779 38.4109ZM74.7328 33.9857C75.266 34.7551 77.0689 35.2926 77.6955 38.7459C78.2899 42.0179 78.7628 45.8913 79.5094 49.1263C79.6693 49.7876 79.794 50.4663 79.9712 51.1276C79.1714 52.0215 78.3354 52.9689 77.4461 53.97C77.3222 48.2852 76.0306 39.5444 74.7328 33.9857ZM79.954 60.35V60.3327C81.4651 58.6167 82.5999 57.35 83.8617 55.9201C85.3226 56.5396 86.4574 56.4514 87.12 56.4711C87.6172 58.7049 86.3735 59.5271 85.0929 60.8151C83.8656 62.0833 81.1272 61.8335 79.954 60.35ZM86.782 63.4596C86.6244 65.0526 85.5736 67.1769 83.5284 67.9817C80.8966 69.0001 78.0154 68.2316 75.9703 65.7124C73.7125 62.9417 72.6633 59.6887 72.29 56.1321C71.6673 50.4127 71.0447 44.6759 70.2809 38.9564C69.9609 36.4356 68.9093 33.2219 68.2686 30.2187C72.0469 31.1867 72.3433 32.4345 73.9447 40.5116C74.5305 43.4683 74.5846 46.5345 74.8332 49.5543C75.0465 52.0033 74.8332 54.5415 75.4558 56.8652C75.4731 56.9007 75.9452 59.0975 77.145 60.8151C78.8334 63.4423 81.6785 65.0148 86.782 63.4596ZM59.4667 10.5017C66.3654 10.5017 72.7903 11.7865 78.5628 14.3223C82.7732 16.1731 86.5475 18.5678 89.8553 21.4409L89.057 22.4585C88.8257 22.7628 86.8346 25.4964 87.4392 28.9111C87.7239 30.4836 88.6657 32.7175 91.5829 34.5233C92.1875 34.8977 92.8094 35.2201 93.4321 35.4527C91.3516 37.9372 89.2538 40.4399 86.3194 43.8356C84.2742 39.5097 82.1247 36.3229 78.4444 32.8373C75.4041 29.9594 71.396 27.7137 68.2678 26.7C66.7865 26.22 64.6001 24.0413 63.4403 22.8463C60.5019 19.8187 57.0004 17.2759 53.6095 15.3998C51.0178 13.9652 48.633 13.177 46.0483 12.3202C50.2516 11.1213 54.7388 10.5017 59.4667 10.5017ZM118.056 68.6801C118.108 68.3601 118.057 68.6762 118.057 68.6762C118.604 65.3451 118.895 61.9438 118.895 58.4803C118.895 51.3719 117.736 44.5198 115.47 38.0736C117.075 36.3536 118.346 34.3893 119.412 32.6465L119.715 32.8255C120.301 33.2007 121.048 33.2361 121.688 32.9508C122.329 32.6647 122.791 32.0743 122.916 31.3593L123.911 26.1231L124.996 20.6542C125.031 20.5108 124.871 20.3855 124.73 20.4572L121.173 22.1551H121.156L114.38 25.5863C113.687 25.9441 113.225 26.6591 113.189 27.4631C113.154 28.2679 113.545 29.0183 114.257 29.4471C113.783 30.2203 113.301 30.9865 112.798 31.7132C111.784 29.6544 110.655 27.6633 109.402 25.7518C109.946 25.0786 110.47 24.4244 110.966 23.7993C111.589 23.0481 112.353 22.1369 113.118 21.1351L113.598 21.4393C114.202 21.7964 114.932 21.85 115.572 21.5647C116.212 21.2604 116.674 20.6708 116.816 19.974L118.737 9.71506C118.772 9.50065 118.577 9.33985 118.381 9.42892C118.381 9.42892 110.415 13.1108 108.263 14.2009C107.569 14.5588 107.107 15.2729 107.072 16.0777C107.054 16.7745 107.338 17.4359 107.872 17.8655C107.392 18.4905 106.894 19.1164 106.396 19.7777L106.093 20.1167C105.969 20.2239 105.862 20.3311 105.755 20.4564L105.612 20.6424C104.741 19.5933 103.836 18.5686 102.884 17.577C103.09 16.4852 103.301 15.3273 103.301 15.3273L104.582 8.21346C104.618 8.05266 104.457 7.92812 104.315 7.99906L96.4967 11.8874C92.6267 8.94967 88.3387 6.49037 83.6672 4.55366C76.3804 1.53234 68.2388 0 59.4667 0C50.6186 0 42.419 1.53234 35.0961 4.55208C27.767 7.57498 21.4063 11.8449 16.1898 17.2412C10.9757 22.639 6.9292 28.9607 4.16411 36.032C1.40058 43.0946 0 50.6476 0 58.4803C0 66.287 1.40686 73.8399 4.18214 80.9294C6.959 88.0235 11.0047 94.3531 16.2087 99.7391C21.4134 105.123 27.7795 109.393 35.1346 112.428C42.4786 115.461 50.6657 117 59.4667 117C68.1667 117 76.2886 115.461 83.6092 112.427C90.9352 109.393 97.3193 105.106 102.589 99.6824C107.852 94.2648 111.931 87.9439 114.711 80.8939C116.259 76.9677 117.366 72.8814 118.056 68.6801Z" fill="white"/>
</svg>
