<svg width="25" height="26" viewBox="0 0 25 26" fill="none" xmlns="http://www.w3.org/2000/svg">
<g clip-path="url(#clip0)">
<path d="M19.9717 18.4734C20.2413 18.4734 20.46 18.246 20.46 17.9656C20.46 17.6851 20.2413 17.4578 19.9717 17.4578C19.702 17.4578 19.4834 17.6851 19.4834 17.9656C19.4834 18.246 19.702 18.4734 19.9717 18.4734Z" fill="#D58C51"/>
<path d="M24.6223 4.88079C24.3801 4.28558 24.0339 3.75131 23.5925 3.2923C23.1516 2.8338 22.6374 2.4734 22.0652 2.22178C21.4729 1.96102 20.844 1.82884 20.1951 1.82884H20.194C19.7888 1.82884 19.3854 1.8817 18.9953 1.9859C18.6174 2.08706 18.2517 2.23651 17.9079 2.43019C16.6531 0.88598 14.8186 0 12.8757 0C12.3449 0 11.8176 0.0655586 11.3068 0.19566C10.8107 0.32175 10.3283 0.508777 9.87329 0.751766C9.42651 0.990184 9.00464 1.28243 8.62036 1.62094C8.23852 1.95746 7.89282 2.3397 7.59394 2.756C7.19604 2.46066 6.75947 2.23143 6.29561 2.07436C5.81562 1.91115 5.31465 1.82884 4.80635 1.82884H4.80537C4.15645 1.82884 3.52754 1.96102 2.9352 2.22178C2.36294 2.4734 1.84878 2.8338 1.40791 3.2923C0.966504 3.75131 0.619775 4.28553 0.378125 4.88079C0.127637 5.49682 0.000244141 6.15154 0.000244141 6.82657C0.000244141 8.12175 0.475293 9.3503 1.33667 10.2846C1.7561 10.7395 2.24634 11.1035 2.79419 11.3663C3.35869 11.6372 3.96118 11.7892 4.5852 11.8187L5.52959 25.5278C5.53838 25.657 5.59307 25.7759 5.68384 25.8638C5.77422 25.9518 5.89238 26 6.01641 26H19.4534C19.5774 26 19.6956 25.9518 19.7859 25.8638C19.8767 25.7759 19.9314 25.6569 19.9402 25.5278L20.3015 20.2831C20.3108 20.1474 20.2688 20.0168 20.1833 19.9141C20.0979 19.8114 19.9792 19.7494 19.8494 19.7397C19.8376 19.7387 19.8254 19.7382 19.8138 19.7382C19.5593 19.7382 19.346 19.9456 19.3274 20.2099V20.2104L19.1421 22.9015H16.2241L16.337 21.2199C16.3559 20.9399 16.153 20.697 15.884 20.6774C15.6151 20.6575 15.3816 20.8689 15.3628 21.149L15.2451 22.9015H10.2047L10.087 21.149C10.0682 20.869 9.83516 20.6576 9.56582 20.6774C9.29678 20.697 9.09394 20.9399 9.11279 21.2199L9.22573 22.9015H6.3479C6.34106 22.9015 6.33437 22.9022 6.32759 22.9025L5.55981 11.755C6.05264 11.6644 6.55483 11.4878 7.01357 11.2404C7.25303 11.1113 7.34663 10.8046 7.22261 10.5553C7.09858 10.3061 6.8041 10.2086 6.56445 10.3377C6.07031 10.6041 5.51875 10.7687 5.01016 10.8018C4.93975 10.8052 4.87114 10.8072 4.80542 10.8072C3.78296 10.8072 2.82153 10.3929 2.0979 9.64118C1.37524 8.88829 0.976807 7.88892 0.976807 6.82657C0.976807 5.76367 1.37524 4.76384 2.0979 4.01157C2.82153 3.2598 3.78296 2.84553 4.80542 2.84553C5.62549 2.84553 6.41689 3.11822 7.07173 3.61898C6.89585 3.94936 6.75972 4.25709 6.6604 4.55041C6.5708 4.81518 6.7043 5.1055 6.95864 5.19878C7.0123 5.21848 7.06709 5.22783 7.1209 5.22783C7.32222 5.22783 7.51069 5.09722 7.58144 4.8883C7.69643 4.54853 8.15176 3.70932 8.16069 3.68839C9.20225 2.01378 10.9577 1.01664 12.8756 1.01664C14.6603 1.01664 16.2937 1.86789 17.3657 3.35354C17.3703 3.3608 17.988 4.36429 18.1545 4.84346C18.2264 5.05035 18.4139 5.17903 18.6137 5.17903C18.6688 5.17903 18.7249 5.16923 18.7797 5.14856C19.0333 5.05309 19.1645 4.76166 19.0728 4.49764C18.9309 4.08936 18.7335 3.67626 18.4855 3.26417C19.0137 2.98949 19.5961 2.84553 20.195 2.84553C21.2174 2.84553 22.1789 3.2598 22.9025 4.01157C23.6251 4.76384 24.0231 5.76367 24.0236 6.82657C24.0246 8.94217 22.4342 10.6882 20.4034 10.8016C20.3904 10.8023 20.2376 10.8016 20.1662 10.8016C19.52 10.8016 18.9122 10.6282 18.3081 10.2715C18.0736 10.133 17.7755 10.2187 17.6424 10.4628C17.5094 10.707 17.5917 11.0172 17.8263 11.1557C18.4904 11.5479 19.1887 11.7671 19.9055 11.8099L19.6413 15.6472C19.6222 15.9268 19.8249 16.1703 20.0934 16.1906C20.1051 16.1917 20.1168 16.1922 20.1286 16.1922H20.1291C20.3835 16.1922 20.5974 15.9848 20.6154 15.7199L20.8874 11.7719C22.0192 11.6021 23.0592 11.013 23.8151 10.1123C24.1896 9.66697 24.4816 9.16226 24.6843 8.61174C24.8937 8.04243 25.0002 7.44159 25.0002 6.82657C25.0002 6.15154 24.8728 5.49682 24.6223 4.88079ZM19.0721 23.918L18.9988 24.9834H6.47095L6.39756 23.918H19.0721Z" fill="#D58C51"/>
</g>
<defs>
<clipPath id="clip0">
<rect width="25" height="26" fill="white" transform="translate(0.000244141)"/>
</clipPath>
</defs>
</svg>
