<svg width="26" height="26" viewBox="0 0 26 26" fill="none" xmlns="http://www.w3.org/2000/svg">
<g clip-path="url(#clip0)">
<path d="M16.8215 23.7148H15.5995C14.7961 23.7148 14.1424 23.0608 14.1424 22.2569V18.2681C14.1424 16.6333 14.3429 15.5502 14.7926 14.7564C15.2098 14.0198 15.8478 13.526 16.6556 12.9009L16.8391 12.7587C18.8435 11.2022 19.9574 8.75961 19.8187 6.22482L19.8183 6.21827L19.3958 0.353488C19.3815 0.154273 19.2157 0 19.0159 0H9.74369C9.53331 0 9.36283 0.170523 9.36283 0.380859C9.36283 0.591195 9.53331 0.761719 9.74369 0.761719H18.6615L19.0582 6.2694C19.1162 7.33728 18.9275 8.38683 18.5258 9.34517C18.0648 8.88814 17.2326 8.29344 16.0228 8.29344C15.8773 8.29344 15.7251 8.30598 15.5705 8.33071C15.3628 8.36398 15.2214 8.55928 15.2547 8.76703C15.2879 8.97467 15.4829 9.11584 15.6909 9.08289C15.8058 9.0645 15.9174 9.05516 16.0228 9.05516C17.1595 9.05516 17.8869 9.75036 18.1665 10.078C17.7181 10.8724 17.1126 11.5819 16.3719 12.1571L16.1894 12.2985C16.1048 12.364 16.0217 12.4283 15.94 12.4919C15.9298 12.4976 15.9197 12.5035 15.9099 12.5102C14.9564 13.1548 13.8959 13.5245 13.0002 13.5245C12.0845 13.5245 11.0041 13.1408 10.0345 12.4718C9.96119 12.4147 9.88669 12.357 9.81103 12.2985L9.62847 12.157C9.11553 11.7587 8.66749 11.2959 8.2914 10.7852C8.45842 10.8354 8.63951 10.8849 8.83176 10.9298C9.38828 11.0599 9.9131 11.125 10.4014 11.125C10.7463 11.125 11.073 11.0925 11.3799 11.0274C12.0242 10.8907 12.7008 10.502 13.4172 10.0905C13.6984 9.92895 13.9892 9.76188 14.2752 9.61294C14.4617 9.5158 14.5342 9.28581 14.437 9.09924C14.3398 8.91267 14.1098 8.84025 13.9233 8.93735C13.6234 9.09355 13.3256 9.26458 13.0378 9.42998C13.0252 9.43724 13.0127 9.4444 13.0001 9.45161L12.9624 9.42998C11.9897 8.87118 10.9838 8.29339 9.97749 8.29339C8.77037 8.29339 7.93217 8.89784 7.4755 9.34736C7.07306 8.38845 6.8841 7.33814 6.94204 6.26961L7.33885 0.761719H8.1031C8.31349 0.761719 8.48396 0.591195 8.48396 0.380859C8.48396 0.170523 8.31349 0 8.1031 0H6.98444C6.78472 0 6.61892 0.154273 6.6046 0.353488L6.1822 6.21827L6.18174 6.22482C6.04306 8.75961 7.15695 11.2022 9.16144 12.7587L9.34491 12.9009C10.1527 13.526 10.7908 14.0198 11.2079 14.7564C11.6575 15.5502 11.8581 16.6332 11.8581 18.2681V22.2568C11.8581 23.0608 11.2044 23.7148 10.401 23.7148H9.17896C8.30537 23.7148 7.59463 24.4258 7.59463 25.2997C7.59463 25.6858 7.90866 25.9999 8.29465 25.9999H9.77761C9.988 25.9999 10.1585 25.8294 10.1585 25.6191C10.1585 25.4088 9.988 25.2382 9.77761 25.2382H8.35863C8.39017 24.8129 8.74605 24.4765 9.17896 24.4765H10.401C11.6245 24.4765 12.6198 23.4807 12.6198 22.2568V18.2681C12.6198 16.1763 12.2804 14.9748 11.6927 14.0984C12.1387 14.2216 12.5789 14.2863 13.0003 14.2863C13.421 14.2863 13.8617 14.2211 14.3084 14.0975C13.7203 14.974 13.3807 16.1756 13.3807 18.2681V22.2569C13.3807 23.4808 14.376 24.4766 15.5995 24.4766H16.8215C17.2544 24.4766 17.6103 24.813 17.6419 25.2383H11.426C11.2156 25.2383 11.0451 25.4088 11.0451 25.6191C11.0451 25.8295 11.2156 26 11.426 26H17.7058C18.0919 26 18.4059 25.6859 18.4059 25.2998C18.4059 24.4258 17.6951 23.7148 16.8215 23.7148ZM12.2219 9.88432C11.8636 10.0705 11.5261 10.2178 11.2219 10.2824C10.0352 10.5341 8.6947 10.141 8.00946 9.88828C8.36686 9.53464 9.02651 9.05526 9.97759 9.05526C10.672 9.05521 11.451 9.44872 12.2219 9.88432Z" fill="#D58C51"/>
</g>
<defs>
<clipPath id="clip0">
<rect width="26" height="26" fill="white" transform="translate(0.000244141)"/>
</clipPath>
</defs>
</svg>
