<svg width="31" height="30" viewBox="0 0 31 30" fill="none" xmlns="http://www.w3.org/2000/svg">
<g clip-path="url(#clip0)">
<path d="M30.845 21.8999C30.845 21.7499 30.845 21.7499 30.69 21.7499C30.225 20.8499 29.14 19.6499 27.59 18.2999C26.97 17.6999 26.505 17.2499 26.35 16.9499C26.04 16.4999 25.885 16.0499 26.195 15.7499C26.35 15.4499 26.815 14.6999 27.59 13.6499C28.055 13.0499 28.365 12.5999 28.675 12.2999C30.535 9.89985 31.31 8.39985 31.155 7.64985L30.845 7.49985C30.845 7.34985 30.69 7.34985 30.38 7.19985C30.07 7.04985 29.76 7.04985 29.295 7.19985H24.645C24.645 7.19985 24.49 7.19985 24.335 7.19985H24.18H24.025L23.87 7.34985C23.87 7.49985 23.715 7.49985 23.715 7.64985C23.25 8.84985 22.63 10.0499 22.01 11.0999C21.545 11.6999 21.235 12.2999 20.925 12.7499C20.46 13.4999 20.15 13.7999 19.995 14.0999C19.84 14.2499 19.53 14.3999 19.375 14.6999C19.22 14.8499 19.065 14.8499 18.91 14.8499C18.755 14.8499 18.755 14.8499 18.6 14.8499C18.445 14.6999 18.29 14.5499 18.29 14.3999C18.135 14.2499 18.135 13.9499 18.135 13.7999C18.135 13.6499 18.135 13.3499 18.135 13.1999C18.135 13.0499 18.135 12.7499 18.135 12.4499C18.135 12.1499 18.135 11.8499 18.135 11.8499C18.135 11.3999 18.135 11.0999 18.135 10.4999C18.135 10.0499 18.135 9.59985 18.135 9.44985C18.135 9.29985 18.135 8.84985 18.135 8.54985C18.135 8.24985 18.135 8.09985 18.135 7.79985C18.135 7.64985 17.98 7.49985 17.98 7.34985C17.98 7.19985 17.825 7.04985 17.67 6.89985C17.515 6.74985 17.36 6.74985 17.205 6.74985C16.585 6.59985 15.965 6.59985 15.035 6.59985C13.02 6.59985 11.78 6.74985 11.16 7.04985C10.85 6.89985 10.695 7.04985 10.385 7.34985C10.23 7.49985 10.23 7.64985 10.385 7.64985C11.005 7.79985 11.47 7.94985 11.78 8.24985L11.935 8.39985C11.935 8.54985 12.09 8.84985 12.09 9.14985C12.245 9.44985 12.245 9.89985 12.245 10.3499C12.245 10.9499 12.245 11.6999 12.245 12.2999C12.245 12.8999 12.09 13.1999 12.09 13.4999C12.09 13.7999 11.935 14.0999 11.935 14.2499C11.78 14.5499 11.625 14.6999 11.625 14.6999C11.625 14.6999 11.625 14.6999 11.47 14.8499C11.315 14.8499 11.16 14.9999 11.005 14.9999C10.85 14.9999 10.695 14.9999 10.385 14.8499C10.385 14.3999 10.075 14.2499 9.92003 13.9499C9.61003 13.6499 9.30003 13.3499 9.14503 12.8999C8.83503 12.4499 8.52503 11.9999 8.21503 11.2499L7.90503 10.7999C7.75003 10.6499 7.59503 10.1999 7.28503 9.59985C6.97503 8.99985 6.82003 8.54985 6.51003 7.94985C6.51003 7.79985 6.35503 7.64985 6.20003 7.49985H6.04503C5.89003 7.49985 5.89003 7.34985 5.73503 7.34985C5.58003 7.34985 5.42503 7.19985 5.42503 7.19985H1.08503C0.620029 7.19985 0.310029 7.34985 0.155029 7.49985V7.64985C0.155029 7.79985 0.155029 7.79985 0.155029 7.94985C0.155029 8.09985 0.155029 8.24985 0.310029 8.39985C0.930029 9.89985 1.70503 11.2499 2.48003 12.5999C3.25503 13.9499 3.87503 14.9999 4.49503 15.8999C5.11503 16.7999 5.58003 17.5499 6.20003 18.2999C6.82003 19.0499 7.13003 19.4999 7.28503 19.6499C7.44003 19.7999 7.59503 19.9499 7.75003 20.0999L8.21503 20.5499C8.52503 20.8499 8.83503 21.1499 9.30003 21.4499C9.76503 21.7499 10.385 22.1999 11.005 22.4999C11.625 22.7999 12.4 23.0999 13.175 23.2499C13.95 23.3999 14.725 23.5499 15.5 23.5499H17.05C17.36 23.5499 17.67 23.3999 17.825 23.2499V23.0999C17.825 22.9499 17.98 22.9499 17.98 22.7999C17.98 22.6499 17.98 22.4999 17.98 22.3499C17.98 21.8999 17.98 21.5999 18.135 21.1499C18.29 20.8499 18.29 20.5499 18.445 20.3999C18.6 20.2499 18.6 20.0999 18.755 19.9499C18.91 19.7999 18.91 19.7999 19.065 19.7999H19.22C19.53 19.6499 19.84 19.7999 20.15 20.0999C20.46 20.3999 20.77 20.6999 21.08 20.9999C21.39 21.2999 21.7 21.7499 22.165 22.1999C22.63 22.6499 22.94 22.9499 23.25 23.2499L23.56 23.3999C23.87 23.5499 24.18 23.6999 24.335 23.6999C24.645 23.8499 24.955 23.8499 25.265 23.8499H29.45C29.915 23.8499 30.225 23.8499 30.38 23.6999C30.535 23.5499 30.69 23.3999 30.845 23.2499C30.845 23.0999 30.845 22.9499 30.845 22.6499C30.845 22.1999 30.845 22.0499 30.845 21.8999Z" fill="white"/>
</g>
<defs>
<clipPath id="clip0">
<rect width="31" height="30" fill="white"/>
</clipPath>
</defs>
</svg>
