<svg width="26" height="26" viewBox="0 0 26 26" fill="none" xmlns="http://www.w3.org/2000/svg">
<path fill-rule="evenodd" clip-rule="evenodd" d="M3.57324 9.68377C3.57324 10.2742 3.59354 10.8475 3.67199 11.4131C3.80715 12.3899 4.10758 13.3957 4.52512 14.2409C4.89686 14.9933 5.27069 15.6589 5.80757 16.3141C6.06369 16.6265 6.39068 17.0236 6.69604 17.2786C6.88714 17.4384 7.06613 17.6416 7.34361 17.8582L7.87003 18.2581C8.36693 18.6024 8.88173 18.8845 9.42427 19.1579C10.6697 19.7857 12.2718 20.0759 13.6899 20.0759C15.1613 20.0759 16.3426 19.737 17.4957 19.2242C19.1519 18.4877 20.5299 17.2404 21.5278 15.7438C22.0585 14.9476 22.279 14.4245 22.279 13.3649C22.279 12.7112 22.0478 12.1198 21.733 11.6321C21.5155 11.2953 21.2507 11.0014 20.9448 10.7426C20.4616 10.3339 19.5946 9.98435 18.9235 9.98435C18.5137 9.98435 18.0489 10.0212 17.6933 10.1313C17.3913 10.2247 17.2171 10.3125 16.9617 10.4514C16.7332 10.5757 16.5427 10.7237 16.337 10.8785C15.8553 11.241 14.2451 12.4538 13.8983 12.6467C13.3243 12.966 12.6372 12.9522 12.0402 12.7108C11.5988 12.5324 11.288 12.1841 11.0686 11.7791C10.6621 11.0283 10.8486 9.88172 11.4714 9.31844C11.8204 9.00279 12.9974 8.19412 13.4573 7.84864L15.6254 6.26039C15.7016 6.20311 15.7477 6.1685 15.8284 6.11301C16.1541 5.8888 16.3942 5.6807 16.3942 5.20141C16.3942 4.90471 16.1454 4.61769 15.8942 4.49969C15.3518 4.24506 14.9334 4.70048 14.5411 4.97586C13.6195 5.62313 12.7161 6.30842 11.8079 6.97553L10.4737 7.97007C10.2898 8.11298 10.1261 8.27676 9.9874 8.46055L9.89686 8.57019C9.50601 9.04545 9.15741 9.98002 9.15741 10.6103C9.15741 11.2902 9.23632 11.8715 9.51601 12.4304C9.74605 12.8898 9.94757 13.1649 10.2905 13.5089C10.4373 13.6563 10.602 13.8107 10.78 13.9209C11.4342 14.3265 12.0943 14.5919 12.8885 14.5919C13.1675 14.5919 13.6137 14.5291 13.8374 14.464C14.7492 14.1987 15.1573 13.8121 15.9041 13.2753C16.3195 12.9766 17.4009 12.1384 17.7953 11.9112C19.482 10.9397 21.4104 12.8739 20.2507 14.6171C20.15 14.7683 20.0641 14.923 19.954 15.0715C19.606 15.5403 19.3285 15.8518 18.9172 16.2634C17.6449 17.5366 15.5966 18.3982 13.5898 18.3982C12.1007 18.3982 10.7618 18.006 9.5002 17.3041C9.16456 17.1172 8.86472 16.9179 8.56697 16.6848C8.51237 16.6421 8.4797 16.6147 8.42795 16.5735C8.13735 16.342 7.85512 16.0902 7.61093 15.8129C7.38851 15.5602 7.22546 15.4047 7.00752 15.1141C6.78227 14.8138 6.56865 14.5171 6.38635 14.1825C6.25821 13.9473 6.14425 13.7286 6.02685 13.4905C5.47491 12.3696 5.251 11.1209 5.251 9.83398C5.251 7.96768 5.88901 6.46849 6.84328 5.09087L7.06166 4.80848C7.14133 4.71466 7.20084 4.6447 7.28602 4.55713C7.34301 4.49835 7.34762 4.47688 7.39849 4.41899C7.5508 4.2461 7.7328 4.09842 7.89942 3.94342C7.94895 3.89718 7.97416 3.86258 8.02682 3.82037C9.58284 2.57402 11.1783 1.94614 13.2391 1.94614C15.1637 1.94614 17.0074 2.71722 18.4552 3.94194C18.7822 4.2185 19.0807 4.51715 19.3567 4.84339C19.7044 5.25451 20.0341 5.68771 20.2922 6.16164C20.4658 6.48057 20.627 6.70105 21.041 6.76654C21.2974 6.80711 21.5653 6.67062 21.6975 6.548C22.0221 6.24711 22.0517 5.79392 21.8079 5.42203C21.6589 5.1944 21.5357 4.94648 21.3777 4.7254C21.2545 4.5531 21.1515 4.38304 21.0164 4.2103C20.9436 4.11752 20.8892 4.05352 20.8158 3.96028C20.474 3.52485 20.0481 3.07002 19.621 2.72602C18.7842 2.05235 18.7187 1.9909 17.7728 1.44417C17.0032 0.999339 15.8926 0.592699 14.9923 0.443368C13.4951 0.194847 12.2617 0.180976 10.7701 0.553764C10.1734 0.702939 9.60432 0.899837 9.05686 1.1694C7.97625 1.70165 7.02362 2.38143 6.19571 3.24142L5.92705 3.54872C5.46655 4.15019 5.21877 4.40228 4.84167 5.09266C4.07671 6.4937 3.57324 8.03854 3.57324 9.68377ZM8.43123 21.1026C8.43123 21.686 8.88799 21.8486 9.21602 21.9955C9.60254 22.1688 10.0436 22.3137 10.4758 22.4385C13.0006 23.1677 15.4761 22.9912 17.8969 22.0292C18.2667 21.8821 18.673 21.6599 18.673 21.1527C18.673 20.6977 18.294 20.3013 17.9218 20.3013C17.4547 20.3013 17.6409 20.3192 17.282 20.4627C17.1189 20.5278 16.9971 20.5736 16.8307 20.6374C16.5231 20.7556 16.1987 20.8443 15.8684 20.9273C13.8787 21.428 11.8113 21.2232 9.99098 20.4944C9.75305 20.3992 9.57598 20.2945 9.34357 20.2636C8.9211 20.208 8.43123 20.5861 8.43123 21.1026ZM13.6648 23.9823C12.8623 23.9823 12.4947 23.9595 11.7184 23.8253L10.3093 23.4816C9.41189 23.4816 9.12294 24.7212 9.94116 25.1016C10.0283 25.1422 10.07 25.1465 10.1681 25.1754C10.2662 25.2044 10.3126 25.2227 10.4196 25.2493C11.8789 25.6128 12.2653 25.6601 13.815 25.6601C14.5854 25.6601 15.4446 25.5167 16.0688 25.3597C16.8383 25.1659 17.5963 25.0788 17.5963 24.2328C17.5963 23.9354 17.3757 23.6309 17.1106 23.5163C16.6954 23.337 16.4994 23.4959 16.0601 23.6231C15.3314 23.8342 14.4605 23.9823 13.6648 23.9823Z" fill="#D58C51"/>
</svg>
