<svg width="30" height="30" viewBox="0 0 30 30" fill="none" xmlns="http://www.w3.org/2000/svg">
<path d="M19.95 4.19995H10.05C6.89995 4.19995 4.19995 6.74995 4.19995 10.05V19.95C4.19995 23.1 6.74995 25.8 10.05 25.8H19.95C23.1 25.8 25.8 23.25 25.8 19.95V10.05C25.8 6.74995 23.25 4.19995 19.95 4.19995ZM18.9 17.85C18.15 18.9 16.95 19.5 15.75 19.8C15.45 19.8 15.3 19.8 15 19.8C13.95 19.8 12.9 19.5 12.15 18.9C11.1 18.15 10.5 16.95 10.2 15.75C10.05 14.4 10.35 13.05 11.1 12C11.85 10.95 13.05 10.35 14.25 10.05C14.7 10.05 15.15 10.05 15.6 10.05C16.65 10.2 17.55 10.65 18.3 11.4C19.05 12.15 19.5 13.05 19.65 14.1C19.95 15.6 19.65 16.8 18.9 17.85ZM21.15 10.2C21 10.35 20.7 10.5 20.5499 10.5C20.25 10.5 20.1 10.35 19.95 10.2C19.8 10.05 19.65 9.74995 19.65 9.59995C19.65 9.29995 19.8 9.14995 19.95 8.99995C20.1 8.84995 20.4 8.69995 20.5499 8.69995C20.85 8.69995 21 8.84995 21.15 8.99995C21.3 9.14995 21.45 9.44995 21.45 9.59995C21.45 9.74995 21.3 10.05 21.15 10.2Z" fill="#D58C51"/>
</svg>
